HIERARCHY
ROOT Hips
{
	OFFSET -278.121490 93.318451 465.951996
	CHANNELS 6 Xposition Yposition Zposition Zrotation Yrotation Xrotation 
	JOINT LeftUpLeg
	{
		OFFSET 0.103457 1.857822 10.548516
		CHANNELS 3 Zrotation Yrotation Xrotation
		JOINT LeftLeg
		{
			OFFSET 43.500008 -0.000031 0.000015
			CHANNELS 3 Zrotation Yrotation Xrotation
			JOINT LeftFoot
			{
				OFFSET 42.372192 0.000027 -0.000009
				CHANNELS 3 Zrotation Yrotation Xrotation
				JOINT LeftToe
				{
					OFFSET 17.299999 0.000000 -0.000004
					CHANNELS 3 Zrotation Yrotation Xrotation
					End Site
					{
						OFFSET 0.000000 0.000000 0.000000
					}
				}
			}
		}
	}
	JOINT RightUpLeg
	{
		OFFSET 0.103460 1.857822 -10.548513
		CHANNELS 3 Zrotation Yrotation Xrotation
		JOINT RightLeg
		{
			OFFSET 43.500038 -0.000015 -0.000002
			CHANNELS 3 Zrotation Yrotation Xrotation
			JOINT RightFoot
			{
				OFFSET 42.372269 -0.000019 0.000014
				CHANNELS 3 Zrotation Yrotation Xrotation
				JOINT RightToe
				{
					OFFSET 17.300005 -0.000001 0.000011
					CHANNELS 3 Zrotation Yrotation Xrotation
					End Site
					{
						OFFSET 0.000000 0.000000 0.000000
					}
				}
			}
		}
	}
	JOINT Spine
	{
		OFFSET 6.901966 -2.603743 -0.000003
		CHANNELS 3 Zrotation Yrotation Xrotation
		JOINT Spine1
		{
			OFFSET 12.588103 0.000012 0.000008
			CHANNELS 3 Zrotation Yrotation Xrotation
			JOINT Spine2
			{
				OFFSET 12.343199 0.000004 0.000007
				CHANNELS 3 Zrotation Yrotation Xrotation
				JOINT Neck
				{
					OFFSET 25.832901 -0.000008 -0.000001
					CHANNELS 3 Zrotation Yrotation Xrotation
					JOINT Head
					{
						OFFSET 11.766611 0.000029 -0.000004
						CHANNELS 3 Zrotation Yrotation Xrotation
						End Site
						{
							OFFSET 0.000000 0.000000 0.000000
						}
					}
				}
				JOINT LeftShoulder
				{
					OFFSET 19.745907 -1.480370 6.000077
					CHANNELS 3 Zrotation Yrotation Xrotation
					JOINT LeftArm
					{
						OFFSET 11.284128 -0.000004 -0.000015
						CHANNELS 3 Zrotation Yrotation Xrotation
						JOINT LeftForeArm
						{
							OFFSET 33.000065 0.000010 0.000016
							CHANNELS 3 Zrotation Yrotation Xrotation
							JOINT LeftHand
							{
								OFFSET 25.200001 0.000010 0.000006
								CHANNELS 3 Zrotation Yrotation Xrotation
								End Site
								{
									OFFSET 0.000000 0.000000 0.000000
								}
							}
						}
					}
				}
				JOINT RightShoulder
				{
					OFFSET 19.746094 -1.480385 -6.000086
					CHANNELS 3 Zrotation Yrotation Xrotation
					JOINT RightArm
					{
						OFFSET 11.284142 -0.000011 -0.000013
						CHANNELS 3 Zrotation Yrotation Xrotation
						JOINT RightForeArm
						{
							OFFSET 33.000092 0.000004 0.000015
							CHANNELS 3 Zrotation Yrotation Xrotation
							JOINT RightHand
							{
								OFFSET 25.199759 0.000141 0.000412
								CHANNELS 3 Zrotation Yrotation Xrotation
								End Site
								{
									OFFSET 0.000000 0.000000 0.000000
								}
							}
						}
					}
				}
			}
		}
	}
}
MOTION
Frames: 14
Frame Time: 0.033333
-233.430099 79.368759 555.284607 57.544330 -4.364481 177.784059 105.503767 -20.069901 177.109114 -53.188537 -2.820866 8.811934 84.705042 -8.690109 -12.211623 21.454555 0.003092 0.000000 102.344531 19.208406 179.191215 -59.555691 -1.707827 -3.459052 86.878756 5.023106 13.048941 21.454555 -0.003108 -0.000018 19.627595 -0.792322 -0.470338 29.251818 -1.441382 -1.119351 28.933679 -1.447984 -1.110603 -7.352306 13.288331 1.061542 -61.162978 -7.678895 12.162541 75.778913 -73.190299 103.805147 -54.690086 40.349687 -42.457842 -105.919295 -1.829302 3.139452 -3.052295 -1.553107 58.881121 89.238901 71.467910 -90.723149 -50.253093 -42.644122 42.647667 -107.879204 0.667707 -3.190379 14.551083 -0.982997 -62.382235 
-233.502304 79.333847 555.319397 57.591691 -4.329641 177.838018 105.489936 -20.152897 177.158592 -53.156193 -2.970604 8.876952 84.613777 -8.750844 -12.242960 21.454555 0.003092 0.000001 102.338391 19.218202 179.263273 -59.615032 -1.757545 -3.458489 86.917825 5.023627 13.072301 21.454558 -0.003106 -0.000017 19.647738 -0.774693 -0.474544 29.291878 -1.404671 -1.129125 28.973734 -1.411334 -1.120600 -7.139272 13.303493 1.055651 -61.221677 -7.711979 12.172060 75.967877 -73.250623 103.614905 -54.509308 40.352450 -42.247783 -105.923113 -1.771245 3.135912 -3.253988 -1.664287 58.194291 89.602834 71.576722 -90.351826 -50.146819 -42.502795 42.469362 -108.167513 0.598055 -3.198156 15.295413 -1.195150 -62.887491 
-233.572098 79.275864 555.362915 57.673667 -4.283495 177.873043 105.462089 -20.228503 177.244461 -53.200907 -3.073688 8.923856 84.567680 -8.789074 -12.250282 21.454551 0.003092 -0.000001 102.339873 19.188909 179.341588 -59.729540 -1.842810 -3.449158 86.985212 5.018952 13.112748 21.454555 -0.003109 -0.000017 19.669321 -0.761029 -0.475068 29.334798 -1.377411 -1.126937 29.016662 -1.384059 -1.118576 -7.003864 13.245571 1.033370 -61.120378 -7.706152 12.089320 76.049669 -73.304794 103.530184 -54.425020 40.301354 -42.021813 -105.972297 -1.755828 3.135705 -3.302278 -1.715497 57.790244 89.451409 71.624492 -90.497875 -50.039568 -42.543271 42.414594 -108.512609 0.524065 -3.208094 15.854225 -1.467572 -63.041908 
-233.642899 79.205223 555.409912 57.787949 -4.245852 177.896976 105.439939 -20.266098 177.232166 -53.297028 -3.022497 8.979162 84.564879 -8.827305 -12.238401 21.454553 0.003092 0.000001 102.347735 19.150604 179.397405 -59.877297 -1.925459 -3.438017 87.062734 5.011683 13.152251 21.454563 -0.003104 -0.000018 19.693370 -0.755510 -0.462740 29.382692 -1.369400 -1.101542 29.064562 -1.375895 -1.093230 -6.771538 13.243789 0.988324 -61.159426 -7.718047 12.026285 75.827517 -73.336609 103.745786 -54.459082 40.268470 -41.914491 -106.136905 -1.751411 3.142592 -3.059812 -1.593934 57.860882 89.034104 71.630605 -90.911990 -49.901929 -42.710672 42.366373 -108.861003 0.423440 -3.216309 16.133272 -1.493515 -62.591826 
-233.710098 79.124413 555.456970 57.921821 -4.205149 177.910035 105.415507 -20.285908 177.153114 -53.430733 -2.855970 9.045766 84.575384 -8.885875 -12.278019 21.454551 0.003092 -0.000000 102.363171 19.113801 179.425490 -60.048428 -1.971187 -3.426957 87.148918 5.000386 13.180141 21.454555 -0.003106 -0.000018 19.721123 -0.751231 -0.440216 29.437931 -1.366380 -1.056439 29.119781 -1.372602 -1.048146 -6.523739 13.283519 0.937026 -61.267432 -7.790622 12.034020 75.465900 -73.315626 104.102588 -54.508632 40.300134 -41.974057 -106.508898 -1.710132 3.155973 -2.495411 -1.258315 58.028638 88.374732 71.462097 -91.582072 -49.540629 -42.998052 42.219459 -109.171893 0.316463 -3.222426 15.826523 -1.407168 -61.759629 
-233.765396 79.039200 555.496399 58.048446 -4.162997 177.906976 105.371575 -20.295702 177.064540 -53.602225 -2.640806 9.104897 84.612718 -8.941548 -12.337541 21.454553 0.003092 0.000000 102.373560 19.088106 179.409959 -60.224360 -1.952331 -3.418674 87.244513 4.985187 13.192005 21.454560 -0.003108 -0.000017 19.745898 -0.749582 -0.412072 29.487132 -1.370012 -1.000916 29.168982 -1.375900 -0.992602 -6.388858 13.336539 0.922024 -61.245104 -7.866014 12.079599 75.353919 -73.242611 104.218155 -54.286726 40.304540 -41.931341 -107.124714 -1.588638 3.174364 -1.726344 -0.891745 58.236119 87.928659 71.283228 -92.040822 -49.106974 -43.199580 41.858439 -109.407104 0.251569 -3.228160 15.256590 -1.323817 -60.747682 
-233.819397 78.971191 555.532471 58.138919 -4.153022 177.932985 105.338592 -20.268996 176.963795 -53.708899 -2.456680 9.151789 84.621112 -8.989396 -12.388624 21.454551 0.003092 0.000000 102.351983 19.105393 179.371190 -60.375867 -1.917065 -3.416347 87.325314 4.973269 13.192603 21.454558 -0.003110 -0.000017 19.766573 -0.752306 -0.399472 29.528414 -1.378360 -0.977047 29.210257 -1.384103 -0.968683 -6.416082 13.377700 0.956378 -61.064514 -7.890049 12.122020 75.289585 -73.223104 104.282912 -54.039900 40.322053 -41.933024 -107.720402 -1.447104 3.190435 -1.189197 -0.442689 58.597696 87.805121 71.211607 -92.169004 -48.830522 -43.218271 41.406219 -109.547403 0.207412 -3.231332 14.773394 -1.327311 -60.067136 
-233.871994 78.918556 555.564880 58.170822 -4.173576 177.967040 105.289763 -20.240799 176.909727 -53.764445 -2.372503 9.174998 84.605239 -9.016968 -12.421070 21.454551 0.003092 -0.000000 102.271851 19.124205 179.342572 -60.504882 -1.928118 -3.417055 87.384600 4.968693 13.200777 21.454558 -0.003109 -0.000017 19.775180 -0.759985 -0.398705 29.545735 -1.393573 -0.977588 29.227592 -1.399320 -0.969132 -6.390795 13.444861 0.996898 -60.966637 -7.929067 12.199522 75.186941 -73.308427 104.376929 -54.030782 40.396635 -42.062713 -108.051202 -1.370253 3.199456 -0.952754 -0.085244 59.022164 87.733609 71.214933 -92.239123 -48.719056 -43.191558 41.151494 -109.670312 0.157924 -3.233069 14.787827 -1.529349 -59.950244 
-233.918106 78.881157 555.599121 58.187188 -4.197915 177.993036 105.257689 -20.240403 176.901531 -53.782074 -2.372565 9.188275 84.571279 -9.033718 -12.435821 21.454553 0.003092 -0.000000 102.194711 19.118608 179.307041 -60.605846 -1.951131 -3.405133 87.422385 4.959651 13.216080 21.454557 -0.003112 -0.000017 19.784024 -0.768232 -0.401248 29.563589 -1.409057 -0.984789 29.245429 -1.414847 -0.976238 -6.309868 13.470371 1.060246 -60.953981 -7.950170 12.280601 75.081879 -73.394501 104.473276 -54.109595 40.504600 -42.113847 -108.174999 -1.368449 3.204701 -0.955670 -0.168468 59.166281 87.613152 71.277703 -92.352128 -48.751944 -43.151564 41.078124 -109.770996 0.141147 -3.234697 14.977037 -1.489479 -60.041734 
-233.957993 78.856918 555.630981 58.206572 -4.221118 178.041995 105.252928 -20.220903 176.916188 -53.760890 -2.407392 9.194993 84.518502 -9.045703 -12.443639 21.454548 0.003092 -0.000000 102.142057 19.131609 179.266292 -60.685999 -1.967229 -3.384904 87.448073 4.945886 13.230174 21.454550 -0.003109 -0.000018 19.793149 -0.771600 -0.409825 29.581949 -1.407919 -1.001910 29.263799 -1.413812 -0.993367 -6.098385 13.424400 1.129081 -61.034570 -7.944048 12.320832 75.052605 -73.427122 104.499565 -54.173106 40.571819 -42.053526 -108.147214 -1.384963 3.203785 -1.202198 -0.508760 58.985220 87.507748 71.346312 -92.449704 -48.817442 -43.155953 41.153806 -109.855800 0.132962 -3.236126 15.246000 -1.500787 -60.169069 
-233.995300 78.848289 555.650696 58.226065 -4.234004 178.084957 105.264724 -20.195908 176.948263 -53.713482 -2.453956 9.191188 84.455214 -9.051345 -12.451270 21.454551 0.003092 -0.000000 102.120508 19.147705 179.226650 -60.717998 -1.961467 -3.362850 87.438777 4.930761 13.225133 21.454560 -0.003109 -0.000018 19.797769 -0.772782 -0.420292 29.591303 -1.402250 -1.022170 29.273149 -1.408266 -1.013660 -5.782873 13.370539 1.180047 -61.109887 -7.946397 12.332181 75.037899 -73.411112 104.515206 -54.195072 40.588327 -41.989759 -108.058005 -1.379523 3.200395 -1.228543 -0.585614 58.869831 87.530254 71.359289 -92.426373 -48.815270 -43.186566 41.301809 -109.914293 0.113696 -3.237234 15.547122 -1.650514 -60.349140 
-234.024200 78.845032 555.654724 58.238988 -4.226254 178.103999 105.261985 -20.180103 177.006989 -53.688596 -2.490790 9.175638 84.412197 -9.049047 -12.469763 21.454555 0.003092 0.000000 102.118015 19.153792 179.217935 -60.717493 -1.949085 -3.351119 87.402427 4.920473 13.191802 21.454562 -0.003107 -0.000017 19.797945 -0.773334 -0.427010 29.591651 -1.395984 -1.034795 29.273498 -1.402077 -1.026323 -5.463555 13.286250 1.217801 -61.210120 -7.934459 12.312006 74.986523 -73.380233 104.568038 -54.219193 40.613083 -41.951999 -107.939713 -1.387165 3.195789 -1.199482 -0.669851 58.732831 87.576330 71.342712 -92.382509 -48.800920 -43.216058 41.445837 -109.936894 0.102573 -3.237913 15.785576 -1.889238 -60.504063 
-234.044098 78.843819 555.651917 58.232615 -4.214485 178.100953 105.240866 -20.178896 177.087189 -53.677821 -2.533576 9.149604 84.382404 -9.042690 -12.511510 21.454555 0.003092 0.000000 102.104682 19.159193 179.281606 -60.705280 -1.970033 -3.370448 87.357853 4.929564 13.136248 21.454560 -0.003105 -0.000017 19.791412 -0.773368 -0.432157 29.578626 -1.392686 -1.044787 29.260489 -1.398743 -1.036325 -5.287147 13.253259 1.236039 -61.215557 -7.984699 12.344990 75.176648 -73.342585 104.384285 -54.146461 40.573028 -41.889912 -107.792304 -1.389733 3.189571 -1.238498 -0.739013 58.611704 87.548791 71.349310 -92.408997 -48.862419 -43.242699 41.584920 -109.915994 0.111835 -3.238061 15.949168 -2.120467 -60.656574 
-234.057693 78.842918 555.649475 58.210690 -4.181443 178.062007 105.191416 -20.222003 177.178317 -53.693179 -2.571400 9.126938 84.367173 -9.032556 -12.533959 21.454551 0.003092 0.000001 102.091739 19.132601 179.389864 -60.678806 -1.998782 -3.402663 87.315308 4.948936 13.086323 21.454555 -0.003109 -0.000017 19.774053 -0.772992 -0.414755 29.543676 -1.391560 -1.009415 29.225536 -1.397498 -1.000970 -5.033072 13.326478 1.268808 -61.229395 -8.121195 12.492559 75.439904 -73.174016 104.139163 -54.025806 40.570579 -41.861434 -107.635804 -1.409435 3.184133 -1.383708 -0.744329 58.502619 87.608371 71.464891 -92.339820 -48.938220 -43.238147 41.581160 -109.842009 0.146843 -3.237559 16.010711 -2.211677 -60.806490 
